<svg width="24" height="25" viewBox="0 0 24 25" fill="none" xmlns="http://www.w3.org/2000/svg">
<path d="M9 7.5H15M15 17.5V14.5M12 17.5H12.01M9 17.5H9.01M9 14.5H9.01M12 14.5H12.01M15 11.5H15.01M12 11.5H12.01M9 11.5H9.01M7 21.5H17C17.5304 21.5 18.0391 21.2893 18.4142 20.9142C18.7893 20.5391 19 20.0304 19 19.5V5.5C19 4.96957 18.7893 4.46086 18.4142 4.08579C18.0391 3.71071 17.5304 3.5 17 3.5H7C6.46957 3.5 5.96086 3.71071 5.58579 4.08579C5.21071 4.46086 5 4.96957 5 5.5V19.5C5 20.0304 5.21071 20.5391 5.58579 20.9142C5.96086 21.2893 6.46957 21.5 7 21.5Z" stroke="#B56F35" stroke-width="2" stroke-linecap="round" stroke-linejoin="round"/>
</svg>
