<svg width="24" height="25" viewBox="0 0 24 25" fill="none" xmlns="http://www.w3.org/2000/svg">
<path d="M3 6.5L6 7.5M6 7.5L3 16.5C3.8657 17.149 4.91852 17.4999 6.0005 17.4999C7.08248 17.4999 8.1353 17.149 9.001 16.5M6 7.5L9 16.5M6 7.5L12 5.5M12 5.5L18 7.5M12 5.5V3.5M12 5.5V21.5M18 7.5L21 6.5M18 7.5L15 16.5C15.8657 17.149 16.9185 17.4999 18.0005 17.4999C19.0825 17.4999 20.1353 17.149 21.001 16.5L18 7.5ZM12 21.5H9M12 21.5H15" stroke="#A25D32" stroke-width="2" stroke-linecap="round" stroke-linejoin="round"/>
</svg>
