<svg width="48" height="48" viewBox="0 0 48 48" fill="none" xmlns="http://www.w3.org/2000/svg">
<path fill-rule="evenodd" clip-rule="evenodd" d="M42.98 10.64C41.8624 8.98653 39.9958 7.997 38 8.00001H10C6.68629 8.00001 4 10.6863 4 14V34C4 37.3137 6.68629 40 10 40H38C41.3137 40 44 37.3137 44 34V14C44.0027 12.8034 43.6475 11.6332 42.98 10.64ZM10 12H38C38.5745 12.0007 39.1209 12.2484 39.5 12.68L24 21.74L8.52 12.66C8.89812 12.241 9.43564 12.0013 10 12ZM38 36C39.1046 36 40 35.1046 40 34V16.98L26 25.18C25.3923 25.5325 24.7025 25.7188 24 25.72C23.2993 25.7248 22.6096 25.5455 22 25.2L8 16.98V34C8 35.1046 8.89543 36 10 36H38Z" fill="white"/>
</svg>
