<svg xmlns="http://www.w3.org/2000/svg" xmlns:xlink="http://www.w3.org/1999/xlink" width="300" zoomAndPan="magnify" viewBox="0 0 224.87999 225" height="300" preserveAspectRatio="xMidYMid meet" version="1.0"><defs><clipPath id="7a400e52de"><path d="M 145 18.890625 L 190 18.890625 L 190 93 L 145 93 Z M 145 18.890625 " clip-rule="nonzero"/></clipPath><clipPath id="5991df53d0"><path d="M 35 18.890625 L 80 18.890625 L 80 93 L 35 93 Z M 35 18.890625 " clip-rule="nonzero"/></clipPath><clipPath id="51b0835cbd"><path d="M 129 172 L 150 172 L 150 206.292969 L 129 206.292969 Z M 129 172 " clip-rule="nonzero"/></clipPath><clipPath id="b960cf9d91"><path d="M 75 172 L 96 172 L 96 206.292969 L 75 206.292969 Z M 75 172 " clip-rule="nonzero"/></clipPath><clipPath id="e39fc41253"><path d="M 165 69 L 216.359375 69 L 216.359375 206.292969 L 165 206.292969 Z M 165 69 " clip-rule="nonzero"/></clipPath><clipPath id="fa8a0eb8f4"><path d="M 8.71875 69 L 59 69 L 59 206.292969 L 8.71875 206.292969 Z M 8.71875 69 " clip-rule="nonzero"/></clipPath></defs><path fill="#a65e3b" d="M 79.007812 85.753906 C 65.703125 85.753906 58.949219 94.75 58.949219 112.5 C 58.949219 141.292969 103.546875 167.320312 112.4375 172.21875 C 121.332031 167.320312 165.929688 141.292969 165.929688 112.5 C 165.929688 94.75 159.175781 85.753906 145.871094 85.753906 C 127.523438 85.753906 115.480469 107.210938 115.363281 107.417969 C 114.1875 109.558594 110.691406 109.558594 109.515625 107.417969 C 109.398438 107.210938 97.355469 85.753906 79.007812 85.753906 Z M 112.4375 179.359375 C 111.917969 179.359375 111.394531 179.230469 110.910156 178.996094 C 108.523438 177.753906 52.265625 148.398438 52.265625 112.5 C 52.265625 90.9375 61.757812 79.066406 79.007812 79.066406 C 95.59375 79.066406 107.292969 92.363281 112.4375 99.621094 C 117.585938 92.363281 129.285156 79.066406 145.871094 79.066406 C 163.121094 79.066406 172.613281 90.9375 172.613281 112.5 C 172.613281 148.398438 116.355469 177.753906 113.96875 178.996094 C 113.484375 179.230469 112.960938 179.359375 112.4375 179.359375 " fill-opacity="1" fill-rule="nonzero"/><path fill="#a65e3b" d="M 119.398438 85.753906 C 117.949219 85.753906 116.605469 84.800781 116.175781 83.339844 C 115.535156 81.089844 114.464844 78.753906 113.339844 76.273438 C 111.25 71.664062 109.097656 66.910156 109.097656 61.789062 C 109.097656 54.007812 113.027344 48.980469 119.125 48.980469 C 123.214844 48.980469 126.113281 53.132812 127.925781 56.253906 C 128.855469 57.847656 128.320312 59.898438 126.726562 60.824219 C 125.132812 61.75 123.082031 61.214844 122.15625 59.621094 C 120.09375 56.082031 118.941406 55.640625 118.929688 55.640625 C 116.214844 55.667969 115.78125 59.503906 115.78125 61.789062 C 115.78125 65.460938 117.558594 69.363281 119.4375 73.503906 C 120.613281 76.101562 121.816406 78.78125 122.597656 81.484375 C 123.121094 83.257812 122.101562 85.101562 120.328125 85.625 C 120.011719 85.714844 119.699219 85.753906 119.398438 85.753906 " fill-opacity="1" fill-rule="nonzero"/><path fill="#a65e3b" d="M 105.492188 85.753906 C 105.179688 85.753906 104.867188 85.714844 104.550781 85.625 C 102.777344 85.101562 101.757812 83.257812 102.28125 81.484375 C 103.0625 78.78125 104.277344 76.101562 105.441406 73.503906 C 107.320312 69.363281 109.097656 65.460938 109.097656 61.789062 C 109.097656 59.503906 108.664062 55.679688 105.765625 55.667969 C 105.84375 55.691406 104.695312 56.242188 102.722656 59.621094 C 101.796875 61.214844 99.746094 61.75 98.152344 60.824219 C 96.558594 59.898438 96.023438 57.847656 96.953125 56.253906 C 98.765625 53.132812 101.664062 48.980469 105.753906 48.980469 C 111.851562 48.980469 115.78125 54.007812 115.78125 61.789062 C 115.78125 66.910156 113.628906 71.664062 111.539062 76.273438 C 110.414062 78.753906 109.34375 81.089844 108.691406 83.339844 C 108.273438 84.800781 106.941406 85.753906 105.492188 85.753906 " fill-opacity="1" fill-rule="nonzero"/><path fill="#a65e3b" d="M 132.222656 77.671875 C 130.707031 77.671875 129.324219 76.625 128.972656 75.070312 C 128.109375 71.351562 125.746094 66.609375 123.410156 62.078125 C 122.976562 61.203125 122.546875 60.367188 122.101562 59.53125 C 118.277344 52.167969 115.78125 47.074219 115.78125 43.128906 C 115.78125 34.628906 119.816406 28.921875 125.8125 28.921875 C 128.242188 28.921875 130.761719 30.738281 134.863281 34.300781 C 136.246094 35.515625 136.414062 37.65625 135.199219 39.042969 C 133.988281 40.4375 131.910156 40.597656 130.511719 39.382812 L 130.460938 39.34375 C 129.519531 38.519531 126.753906 36.117188 125.589844 35.621094 C 123.332031 35.882812 122.46875 40.308594 122.46875 43.128906 C 122.46875 45.742188 125.667969 51.90625 128.003906 56.398438 C 128.460938 57.257812 128.917969 58.148438 129.375 59.046875 C 131.882812 63.917969 134.457031 69.089844 135.488281 73.570312 C 135.90625 75.371094 134.785156 77.160156 132.980469 77.578125 C 132.734375 77.632812 132.472656 77.671875 132.222656 77.671875 " fill-opacity="1" fill-rule="nonzero"/><path fill="#a65e3b" d="M 92.171875 36.875 L 92.210938 36.875 Z M 92.65625 77.671875 C 92.40625 77.671875 92.144531 77.632812 91.898438 77.578125 C 90.09375 77.160156 88.972656 75.371094 89.390625 73.570312 C 90.421875 69.089844 92.996094 63.917969 95.527344 59.007812 C 95.960938 58.148438 96.402344 57.257812 96.898438 56.359375 C 99.210938 51.90625 102.410156 45.742188 102.410156 43.128906 C 102.410156 40.308594 101.5625 35.882812 99.289062 35.621094 C 98.125 36.117188 95.359375 38.519531 94.417969 39.34375 L 90.015625 34.300781 C 94.117188 30.738281 96.636719 28.921875 99.066406 28.921875 C 105.0625 28.921875 109.097656 34.628906 109.097656 43.128906 C 109.097656 47.074219 106.601562 52.167969 102.800781 59.480469 C 102.332031 60.367188 101.902344 61.203125 101.484375 62.039062 C 99.132812 66.609375 96.769531 71.351562 95.90625 75.070312 C 95.554688 76.625 94.171875 77.671875 92.65625 77.671875 " fill-opacity="1" fill-rule="nonzero"/><g clip-path="url(#7a400e52de)"><path fill="#a65e3b" d="M 175.957031 92.441406 C 174.546875 92.441406 173.230469 91.539062 172.773438 90.128906 C 168.199219 75.945312 160.640625 63.722656 154.554688 53.902344 C 149.332031 45.441406 145.871094 39.851562 145.871094 35.609375 C 145.871094 22.417969 152.175781 18.890625 155.898438 18.890625 C 164.570312 18.890625 179.472656 44.082031 189.082031 67.785156 C 189.789062 69.496094 188.953125 71.441406 187.242188 72.132812 C 185.53125 72.824219 183.585938 72.003906 182.890625 70.292969 C 170.761719 40.386719 158.679688 26.363281 155.675781 25.550781 C 155.234375 25.667969 152.554688 27.628906 152.554688 35.609375 C 152.554688 37.957031 156.460938 44.277344 160.25 50.378906 C 166.191406 59.976562 174.324219 73.125 179.144531 88.066406 C 179.707031 89.828125 178.738281 91.707031 176.976562 92.285156 C 176.648438 92.386719 176.296875 92.441406 175.957031 92.441406 " fill-opacity="1" fill-rule="nonzero"/></g><g clip-path="url(#5991df53d0)"><path fill="#a65e3b" d="M 48.921875 92.441406 C 48.582031 92.441406 48.230469 92.386719 47.890625 92.285156 C 46.140625 91.707031 45.171875 89.828125 45.734375 88.066406 C 50.566406 73.125 58.6875 59.976562 64.628906 50.378906 C 68.417969 44.277344 72.324219 37.957031 72.324219 35.609375 C 72.324219 27.628906 69.644531 25.667969 68.925781 25.578125 C 66.199219 26.363281 54.117188 40.386719 41.988281 70.292969 C 41.292969 72.003906 39.347656 72.824219 37.636719 72.132812 C 35.925781 71.441406 35.105469 69.496094 35.796875 67.785156 C 45.40625 44.082031 60.308594 18.890625 68.980469 18.890625 C 72.703125 18.890625 79.007812 22.417969 79.007812 35.609375 C 79.007812 39.851562 75.546875 45.441406 70.3125 53.902344 C 64.238281 63.722656 56.679688 75.945312 52.105469 90.128906 C 51.648438 91.539062 50.332031 92.441406 48.921875 92.441406 " fill-opacity="1" fill-rule="nonzero"/></g><g clip-path="url(#51b0835cbd)"><path fill="#a65e3b" d="M 145.871094 206.105469 C 144.027344 206.105469 142.527344 204.601562 142.527344 202.761719 C 142.527344 200.4375 139.117188 194.757812 136.390625 190.199219 C 133.84375 185.941406 131.191406 181.539062 129.417969 177.308594 C 128.699219 175.613281 129.496094 173.652344 131.191406 172.933594 C 132.902344 172.21875 134.863281 173.011719 135.578125 174.722656 C 137.171875 178.5 139.695312 182.703125 142.121094 186.765625 C 145.9375 193.109375 149.214844 198.582031 149.214844 202.761719 C 149.214844 204.601562 147.710938 206.105469 145.871094 206.105469 " fill-opacity="1" fill-rule="nonzero"/></g><g clip-path="url(#b960cf9d91)"><path fill="#a65e3b" d="M 79.007812 206.105469 C 77.167969 206.105469 75.664062 204.601562 75.664062 202.761719 C 75.664062 198.582031 78.941406 193.109375 82.757812 186.765625 C 85.183594 182.703125 87.707031 178.5 89.300781 174.722656 C 90.015625 173.011719 91.976562 172.21875 93.671875 172.933594 C 95.382812 173.652344 96.179688 175.613281 95.460938 177.308594 C 93.6875 181.539062 91.035156 185.941406 88.488281 190.199219 C 85.761719 194.757812 82.351562 200.4375 82.351562 202.761719 C 82.351562 204.601562 80.851562 206.105469 79.007812 206.105469 " fill-opacity="1" fill-rule="nonzero"/></g><g clip-path="url(#e39fc41253)"><path fill="#a65e3b" d="M 202.703125 206.105469 C 201.1875 206.105469 199.816406 205.074219 199.449219 203.546875 C 199.308594 202.957031 196.015625 189.152344 196.015625 182.703125 C 196.015625 180.050781 197.464844 176.292969 199.660156 170.597656 C 203.539062 160.542969 209.390625 145.367188 209.390625 129.214844 C 209.390625 122.761719 207.691406 116.820312 206.332031 112.054688 C 205.289062 108.386719 204.375 105.210938 204.375 102.46875 L 204.386719 101.019531 C 204.480469 82.34375 202.964844 77.175781 202.0625 75.75 C 195.964844 76.285156 192.671875 84.605469 192.671875 92.441406 C 192.671875 95.78125 192.398438 122.566406 192.398438 122.566406 C 192.386719 123.234375 192.175781 123.886719 191.796875 124.449219 C 186.457031 132.101562 172.613281 153.921875 172.613281 162.644531 C 172.613281 164.484375 171.113281 165.988281 169.273438 165.988281 C 167.429688 165.988281 165.929688 164.484375 165.929688 162.644531 C 165.929688 151.046875 181.964844 126.96875 185.714844 121.46875 C 185.765625 116.546875 185.988281 95.390625 185.988281 92.441406 C 185.988281 80.816406 191.734375 69.039062 202.703125 69.039062 C 203.707031 69.039062 205.183594 69.324219 206.554688 70.710938 C 209.859375 74.027344 211.164062 82.828125 211.074219 101.058594 L 211.058594 102.46875 C 211.058594 104.269531 211.84375 107.027344 212.757812 110.214844 C 214.234375 115.382812 216.074219 121.824219 216.074219 129.214844 C 216.074219 146.621094 209.949219 162.5 205.902344 173 C 204.320312 177.074219 202.703125 181.292969 202.703125 182.703125 C 202.703125 187.40625 205.054688 198.21875 205.953125 201.976562 C 206.386719 203.78125 205.273438 205.582031 203.484375 206.011719 C 203.226562 206.078125 202.964844 206.105469 202.703125 206.105469 " fill-opacity="1" fill-rule="nonzero"/></g><g clip-path="url(#fa8a0eb8f4)"><path fill="#a65e3b" d="M 22.175781 206.105469 C 21.914062 206.105469 21.652344 206.078125 21.394531 206.011719 C 19.605469 205.582031 18.492188 203.78125 18.925781 201.976562 C 19.824219 198.21875 22.175781 187.40625 22.175781 182.703125 C 22.175781 181.292969 20.542969 177.074219 18.976562 173 C 14.929688 162.5 8.804688 146.621094 8.804688 129.214844 C 8.804688 121.824219 10.644531 115.382812 12.121094 110.214844 C 13.035156 107.027344 13.820312 104.269531 13.820312 102.46875 L 13.820312 101.058594 C 13.714844 82.828125 15.019531 74.027344 18.324219 70.710938 C 19.695312 69.324219 21.171875 69.039062 22.175781 69.039062 C 33.144531 69.039062 38.890625 80.816406 38.890625 92.441406 C 38.890625 95.390625 39.101562 116.546875 39.152344 121.46875 C 42.914062 126.96875 58.949219 151.046875 58.949219 162.644531 C 58.949219 164.484375 57.449219 165.988281 55.605469 165.988281 C 53.765625 165.988281 52.265625 164.484375 52.265625 162.644531 C 52.265625 153.910156 38.421875 132.101562 33.082031 124.449219 C 32.703125 123.886719 32.492188 123.234375 32.480469 122.566406 C 32.480469 122.566406 32.207031 95.78125 32.207031 92.441406 C 32.207031 84.605469 28.914062 76.285156 22.816406 75.75 C 21.929688 77.175781 20.398438 82.34375 20.503906 101.019531 L 20.503906 102.46875 C 20.503906 105.210938 19.605469 108.386719 18.546875 112.054688 C 17.1875 116.820312 15.488281 122.761719 15.488281 129.214844 C 15.488281 145.367188 21.339844 160.542969 25.21875 170.597656 C 27.414062 176.292969 28.863281 180.050781 28.863281 182.703125 C 28.863281 189.152344 25.570312 202.957031 25.429688 203.546875 C 25.0625 205.074219 23.691406 206.105469 22.175781 206.105469 " fill-opacity="1" fill-rule="nonzero"/></g><path fill="#a65e3b" d="M 149.265625 75.722656 C 147.90625 75.722656 146.628906 74.902344 146.132812 73.558594 C 143.832031 67.433594 140.097656 60.25 136.808594 53.929688 C 131.921875 44.527344 129.15625 39.042969 129.15625 35.609375 C 129.15625 27.863281 133.371094 22.234375 139.183594 22.234375 C 145.753906 22.234375 151.105469 30.5 152.113281 32.160156 C 153.078125 33.738281 152.570312 35.789062 151.003906 36.757812 C 149.421875 37.722656 147.371094 37.214844 146.40625 35.648438 C 144.460938 32.460938 141.011719 28.921875 139.183594 28.921875 C 137.09375 28.921875 135.839844 32.316406 135.839844 35.609375 C 135.839844 37.578125 139.667969 44.933594 142.75 50.835938 C 146.117188 57.335938 149.957031 64.703125 152.386719 71.207031 C 153.039062 72.941406 152.164062 74.863281 150.429688 75.515625 C 150.035156 75.660156 149.65625 75.722656 149.265625 75.722656 " fill-opacity="1" fill-rule="nonzero"/><path fill="#a65e3b" d="M 75.613281 75.722656 C 75.234375 75.722656 74.828125 75.660156 74.449219 75.515625 C 72.714844 74.863281 71.839844 72.941406 72.492188 71.207031 C 74.921875 64.703125 78.761719 57.335938 82.144531 50.835938 C 85.210938 44.933594 89.039062 37.578125 89.039062 35.609375 C 89.039062 32.316406 87.785156 28.921875 85.695312 28.921875 C 83.683594 28.921875 80.144531 32.890625 78.472656 35.648438 C 77.519531 37.214844 75.46875 37.722656 73.890625 36.757812 C 72.308594 35.804688 71.800781 33.738281 72.765625 32.160156 C 73.773438 30.5 79.125 22.234375 85.695312 22.234375 C 91.507812 22.234375 95.722656 27.863281 95.722656 35.609375 C 95.722656 39.042969 92.957031 44.527344 88.070312 53.929688 C 84.78125 60.25 81.046875 67.433594 78.746094 73.558594 C 78.25 74.902344 76.972656 75.722656 75.613281 75.722656 " fill-opacity="1" fill-rule="nonzero"/></svg>