<svg xmlns="http://www.w3.org/2000/svg" xmlns:xlink="http://www.w3.org/1999/xlink" width="300" zoomAndPan="magnify" viewBox="0 0 224.87999 225"  preserveAspectRatio="xMidYMid meet" version="1.0"><defs><g/><clipPath id="e95725f00e"><path d="M 41.804688 53.089844 L 182.730469 53.089844 L 182.730469 140.792969 L 41.804688 140.792969 Z M 41.804688 53.089844 " clip-rule="nonzero"/></clipPath><clipPath id="bad846c2d8"><path d="M 0 85 L 224.761719 85 L 224.761719 181 L 0 181 Z M 0 85 " clip-rule="nonzero"/></clipPath><clipPath id="34bb849bef"><rect x="0" width="225" y="0" height="96"/></clipPath></defs><g clip-path="url(#e95725f00e)"><path fill="#834C30" d="M 112.398438 131.089844 C 80.414062 131.089844 53.210938 107.183594 49.074219 75.523438 C 48.621094 72.097656 51.078125 68.996094 54.4375 68.542969 C 57.863281 68.089844 60.964844 70.546875 61.417969 73.90625 C 64.710938 99.367188 86.617188 118.554688 112.332031 118.554688 C 138.050781 118.554688 159.953125 99.367188 163.25 73.90625 C 163.703125 70.480469 166.804688 68.089844 170.230469 68.542969 C 173.652344 68.996094 176.042969 72.097656 175.589844 75.523438 C 171.585938 107.183594 144.382812 131.089844 112.398438 131.089844 Z M 273.9375 70.480469 C 273.9375 -18.621094 201.503906 -91.058594 112.398438 -91.058594 C 23.292969 -91.058594 -49.140625 -18.621094 -49.140625 70.480469 C -49.140625 159.585938 23.292969 232.019531 112.398438 232.019531 C 201.503906 232.019531 273.9375 159.523438 273.9375 70.480469 Z M 261.464844 70.480469 C 261.464844 152.671875 194.589844 219.550781 112.398438 219.550781 C 30.207031 219.550781 -36.671875 152.671875 -36.671875 70.480469 C -36.671875 -11.707031 30.207031 -78.585938 112.398438 -78.585938 C 194.589844 -78.585938 261.464844 -11.707031 261.464844 70.480469 Z M 75.113281 30.097656 L 75.113281 -0.984375 C 75.113281 -6.992188 70.203125 -11.839844 64.257812 -11.839844 C 58.25 -11.839844 53.402344 -6.925781 53.402344 -0.984375 L 53.402344 30.097656 C 53.402344 36.105469 58.316406 40.953125 64.257812 40.953125 C 70.269531 40.953125 75.113281 36.105469 75.113281 30.097656 Z M 171.390625 30.097656 L 171.390625 -0.984375 C 171.390625 -6.992188 166.480469 -11.839844 160.535156 -11.839844 C 154.527344 -11.839844 149.679688 -6.925781 149.679688 -0.984375 L 149.679688 30.097656 C 149.679688 36.105469 154.589844 40.953125 160.535156 40.953125 C 166.546875 40.953125 171.390625 36.105469 171.390625 30.097656 Z M 171.390625 30.097656 " fill-opacity="1" fill-rule="nonzero"/></g><g clip-path="url(#bad846c2d8)"><g transform="matrix(1, 0, 0, 1, 0, 85)"><g clip-path="url(#34bb849bef)"><g fill="#834C30" fill-opacity="1"><g transform="translate(4.470664, 17.290546)"><g><path d="M 30.15625 1.84375 C 30.9375 3.1875 31.320312 4.566406 31.3125 5.984375 C 31.3125 7.398438 30.9375 8.71875 30.1875 9.9375 C 29.445312 11.15625 28.40625 12.15625 27.0625 12.9375 L 26.65625 13.171875 C 25.300781 13.960938 23.910156 14.378906 22.484375 14.421875 C 21.054688 14.472656 19.722656 14.148438 18.484375 13.453125 C 17.253906 12.765625 16.25 11.75 15.46875 10.40625 L 12.421875 5.203125 L 5.421875 9.296875 L 1.359375 2.328125 L 23.046875 -10.328125 Z M 17.5 2.25 L 19.1875 5.125 C 19.601562 5.851562 20.109375 6.289062 20.703125 6.4375 C 21.304688 6.59375 21.929688 6.476562 22.578125 6.09375 L 22.828125 5.953125 C 23.503906 5.554688 23.914062 5.066406 24.0625 4.484375 C 24.207031 3.898438 24.070312 3.242188 23.65625 2.515625 L 21.96875 -0.359375 Z M 17.5 2.25 "/></g></g></g><g fill="#834C30" fill-opacity="1"><g transform="translate(19.534145, 42.589417)"><g><path d="M 31.09375 6.34375 C 30.007812 7.425781 28.738281 8.113281 27.28125 8.40625 C 25.820312 8.707031 24.328125 8.507812 22.796875 7.8125 L 19.34375 19.21875 L 12.921875 12.84375 L 16.21875 3.203125 L 14.09375 1.078125 L 7.640625 7.578125 L 1.921875 1.90625 L 19.609375 -15.90625 L 30.5 -5.078125 C 31.78125 -3.816406 32.628906 -2.488281 33.046875 -1.09375 C 33.472656 0.289062 33.5 1.628906 33.125 2.921875 C 32.75 4.210938 32.070312 5.351562 31.09375 6.34375 Z M 25.03125 0.796875 C 25.5 0.335938 25.734375 -0.203125 25.734375 -0.828125 C 25.734375 -1.453125 25.503906 -1.988281 25.046875 -2.4375 L 21.296875 -6.171875 L 18.03125 -2.890625 L 21.78125 0.84375 C 22.238281 1.289062 22.78125 1.507812 23.40625 1.5 C 24.03125 1.5 24.570312 1.265625 25.03125 0.796875 Z M 25.03125 0.796875 "/></g></g></g><g fill="#834C30" fill-opacity="1"><g transform="translate(42.280061, 64.711125)"><g><path d="M 25.609375 -15.078125 C 29.410156 -12.992188 31.8125 -10.414062 32.8125 -7.34375 C 33.8125 -4.269531 33.296875 -0.878906 31.265625 2.828125 C 29.222656 6.546875 26.632812 8.804688 23.5 9.609375 C 20.375 10.421875 16.910156 9.785156 13.109375 7.703125 C 9.304688 5.617188 6.90625 3.046875 5.90625 -0.015625 C 4.90625 -3.078125 5.429688 -6.476562 7.484375 -10.21875 C 9.523438 -13.9375 12.101562 -16.195312 15.21875 -17 C 18.34375 -17.800781 21.804688 -17.160156 25.609375 -15.078125 Z M 22.703125 -9.8125 C 21.191406 -10.644531 19.789062 -10.816406 18.5 -10.328125 C 17.207031 -9.847656 16.128906 -8.828125 15.265625 -7.265625 L 14.15625 -5.21875 C 13.289062 -3.65625 13.003906 -2.195312 13.296875 -0.84375 C 13.585938 0.5 14.488281 1.585938 16 2.421875 C 17.519531 3.253906 18.925781 3.429688 20.21875 2.953125 C 21.519531 2.472656 22.601562 1.453125 23.46875 -0.109375 L 24.578125 -2.15625 C 25.441406 -3.71875 25.722656 -5.175781 25.421875 -6.53125 C 25.128906 -7.882812 24.222656 -8.976562 22.703125 -9.8125 Z M 22.703125 -9.8125 "/></g></g></g><g fill="#834C30" fill-opacity="1"><g transform="translate(71.46186, 79.410536)"><g/></g></g><g fill="#834C30" fill-opacity="1"><g transform="translate(85.11583, 84.215151)"><g><path d="M 19.421875 2.078125 L 18.734375 -1.578125 L 9.984375 -2.5 L 8.5625 0.90625 L 0.359375 0.03125 L 12.15625 -23.953125 L 21.46875 -22.96875 L 27.90625 2.984375 Z M 12.25 -7.90625 L 17.671875 -7.328125 L 16 -16.5 L 15.859375 -16.515625 Z M 12.25 -7.90625 "/></g></g></g><g fill="#834C30" fill-opacity="1"><g transform="translate(116.569923, 87.135378)"><g><path d="M 9.296875 -26.984375 C 17.960938 -28.421875 22.976562 -25.015625 24.34375 -16.765625 C 25.707031 -8.503906 22.054688 -3.65625 13.390625 -2.21875 L 2.671875 -0.4375 L -1.421875 -25.203125 Z M 9.640625 -7.703125 L 12.265625 -8.125 C 15.597656 -8.675781 16.96875 -10.742188 16.375 -14.328125 L 16.015625 -16.484375 C 15.421875 -20.066406 13.457031 -21.582031 10.125 -21.03125 L 7.5 -20.609375 Z M 9.640625 -7.703125 "/></g></g></g><g fill="#834C30" fill-opacity="1"><g transform="translate(147.66129, 81.548414)"><g><path d="M 17.71875 -8.21875 L 15.25 -10.984375 L 7.28125 -7.296875 L 7.8125 -3.625 L 0.328125 -0.15625 L -1.921875 -26.796875 L 6.59375 -30.734375 L 25.453125 -11.8125 Z M 6.4375 -13.09375 L 11.375 -15.375 L 5.21875 -22.375 L 5.09375 -22.328125 Z M 6.4375 -13.09375 "/></g></g></g><g fill="#834C30" fill-opacity="1"><g transform="translate(176.67873, 67.993627)"><g><path d="M 18.015625 -16.25 L 11.953125 -22.96875 C 11.203125 -23.800781 10.46875 -24.679688 9.75 -25.609375 C 9.03125 -26.546875 8.429688 -27.34375 7.953125 -28 C 7.484375 -28.664062 7.191406 -29.09375 7.078125 -29.28125 L 6.953125 -29.1875 L 14.90625 -13.4375 L 10.21875 -9.21875 L -4.609375 -18.703125 L -4.71875 -18.59375 C -4.550781 -18.445312 -4.160156 -18.113281 -3.546875 -17.59375 C -2.929688 -17.082031 -2.195312 -16.421875 -1.34375 -15.609375 C -0.488281 -14.796875 0.3125 -13.972656 1.0625 -13.140625 L 7.125 -6.421875 L 1.625 -1.46875 L -15.1875 -20.125 L -6.734375 -27.75 L 5.796875 -19.53125 L 5.90625 -19.625 L -1 -32.90625 L 7.15625 -40.265625 L 23.96875 -21.609375 Z M 18.015625 -16.25 "/></g></g></g><g fill="#834C30" fill-opacity="1"><g transform="translate(204.203847, 41.844124)"><g><path d="M 10 -16.765625 L 6.421875 -17.671875 L 1.90625 -10.125 L 4.40625 -7.390625 L 0.1875 -0.3125 L -16.671875 -21.046875 L -11.875 -29.09375 L 14.375 -24.09375 Z M -2.046875 -14.421875 L 0.75 -19.109375 L -8.296875 -21.4375 L -8.359375 -21.3125 Z M -2.046875 -14.421875 "/></g></g></g></g></g></g></svg>